<?xml version="1.0" standalone="no"?>
<!DOCTYPE svg PUBLIC "-//W3C//DTD SVG 20010904//EN"
 "http://www.w3.org/TR/2001/REC-SVG-20010904/DTD/svg10.dtd">
<svg version="1.0" xmlns="http://www.w3.org/2000/svg"
 width="221.000000pt" height="221.000000pt" viewBox="0 0 221.000000 221.000000"
 preserveAspectRatio="xMidYMid meet">
<metadata>
Created by potrace 1.11, written by Peter Selinger 2001-2013
</metadata>
<g transform="translate(0.000000,221.000000) scale(0.100000,-0.100000)"
fill="#000000" stroke="none">
<path d="M1619 2165 c-17 -25 -40 -41 -82 -56 -31 -12 -60 -25 -62 -30 -3 -4
-17 3 -30 17 -59 59 -161 76 -239 39 -31 -15 -91 -71 -171 -160 -22 -24 -24
-31 -11 -33 9 -2 16 -8 16 -13 0 -5 5 -9 10 -9 6 0 35 -16 64 -36 62 -41 106
-53 154 -43 37 8 38 5 15 -26 -22 -28 -33 -44 -84 -123 l-41 -63 -34 33 c-69
68 -173 61 -234 -15 -47 -58 -62 -173 -31 -250 6 -16 11 -29 11 -30 0 -2 -12
-4 -26 -5 -73 -6 -180 -87 -210 -158 -8 -19 -22 -34 -32 -35 -123 -4 -218 -63
-269 -167 -39 -80 -40 -183 -2 -262 43 -89 53 -115 128 -330 40 -113 75 -212
78 -220 4 -8 7 -17 8 -20 21 -83 46 -125 88 -147 29 -15 76 -17 451 -17 435
-1 490 3 526 40 10 11 58 129 105 264 78 220 100 281 165 455 25 68 21 174 -9
233 -28 54 -92 119 -137 138 -28 12 -34 20 -35 47 -1 17 -1 35 0 39 3 25 -45
141 -77 183 -71 93 -160 144 -282 160 -36 5 -118 35 -139 51 -12 10 91 162
168 247 39 42 187 161 194 156 7 -5 47 32 47 43 0 5 18 26 39 47 l39 38 -23
27 -22 26 -24 -35z m-64 -91 c-16 -15 -43 -37 -58 -51 -33 -29 -41 -26 -28 9
5 15 28 34 53 47 57 28 70 26 33 -5z m-116 -639 c50 -26 110 -91 134 -144 14
-31 21 -72 23 -124 3 -84 7 -97 31 -97 32 0 113 -54 140 -94 24 -35 28 -51 28
-107 -1 -57 -5 -73 -29 -108 -16 -22 -36 -41 -45 -41 -9 1 -34 13 -56 28 l-40
28 -31 -21 c-46 -31 -117 -32 -178 -1 l-49 25 -29 -22 c-40 -30 -135 -30 -195
0 l-42 21 -52 -25 c-62 -30 -134 -28 -178 5 l-28 21 -49 -25 c-60 -31 -138
-29 -183 4 l-29 21 -23 -21 c-25 -21 -61 -38 -83 -38 -25 0 -66 74 -70 127 -6
70 10 117 57 164 44 44 97 62 160 56 46 -5 79 3 77 18 0 6 6 28 14 50 34 89
121 142 210 130 28 -4 58 -9 66 -11 16 -3 75 -15 100 -19 31 -4 110 24 155 56
65 47 85 83 94 170 1 10 61 -6 100 -26z"/>
</g>
</svg>
